<svg xmlns="http://www.w3.org/2000/svg" fill="none" viewBox="0 0 1763 1752"><path fill="#3D9751" d="M1570.6 2.2c-.7 1.3-6.5 10.6-12.6 20.8-75.3 123.7-172.4 237.6-285.3 334.6-69.7 60-147.6 115.2-230.8 163.7-56.8 33.1-123.1 66.5-185.9 93.7-190.9 82.6-408.8 138.1-622 158.4-63.6 6.1-95.1 7.6-170.2 8.3l-63.8.6V826h1573V413c0-227.2-.2-413-.5-413-.2 0-1.1 1-1.9 2.2Z"/><path fill="#636565" d="M0 1391v360h483v-107H124v-613H0v360ZM790 1032.1c-33.9 1.8-62.9 8.9-90 22-62.5 30.1-104.8 83.8-123.3 156.4-6.5 25.3-9.8 48.7-11.2 79.7l-.7 13.8h116l.6-9.8c2.7-39.8 7.8-68.3 16.3-91.2 20.3-54.6 59.1-79.1 117.7-74.2 23.8 2 38.1 6.5 55.4 17.7 23.1 15.1 38.7 38.8 44.7 68.2 9 43.9 2.5 81.1-20 114.8-25.3 37.8-56.3 65.3-124.5 110.3-33.3 21.9-72.3 49.3-90.3 63.4-42.9 33.3-78.1 75.3-99.2 118.3-17.9 36.4-26.1 70-29.1 118.7l-.6 10.8H1034v-103H863c-120.7 0-171-.3-171-1.1 0-.6 1.4-4.4 3.1-8.6 5.1-12.3 14-24.5 27.8-38.6 20.7-21.2 39.9-36.3 78.1-61.5 89.7-59.2 106.2-71 139-99.8 44.8-39.3 76.5-86.4 88-130.7 5.8-22.4 6.4-27.9 6.5-57.7 0-24.3-.3-28.9-2.3-40-4.9-27-10.3-44.6-19.6-63.5-20.1-41.1-49.9-70.6-93.3-92.4-19.5-9.7-40.2-16-64.4-19.5-9.2-1.4-45.5-3.9-49.9-3.4-.8 0-7.6.4-15 .9Z"/><path fill="#3D9751" d="M1126 1391v360h483v-107h-359v-613h-124v360ZM1703.5 1646.1c-9.4.9-16.6 3.8-25 10.1-7.7 5.9-15.2 15.9-18.1 24.2-2.6 7.6-3.1 24.8-.9 32.2 5.1 17.7 18.8 31.9 35.4 36.8 8.4 2.4 24.4 2.2 32.7-.6 14.8-4.8 28.6-18.7 33.3-33.6 2-6.2 2.3-8.6 1.9-18.9-.4-9.2-1-13.1-2.7-17.6-4.9-12.4-17.6-25.1-29.8-29.7-7-2.6-17.3-3.7-26.8-2.9Zm19.6 9.5c14 4.1 26.6 17.2 30.5 31.9 2.6 9.7 1.2 22.2-3.7 31.7-2.7 5.4-12 15.1-17.3 18.2-12.8 7.5-32.2 7.4-44.6-.2-5.4-3.3-13.4-11.7-16.3-17.1-9.3-17.1-6.9-37.4 6.1-51.4 9.6-10.2 19.1-14.6 32.3-14.6 4.1-.1 10 .6 13 1.5Z"/><path fill="#3D9751" d="M1689 1697.9v29.1h11v-22h7.3c11.9 0 15.4 3.2 16.4 14.8l.6 7.2h10.2l-.6-8.3c-.6-9.3-2.5-13.9-7-16.6l-3-1.8 3.1-1.3c7.2-3 10-14.2 5.5-22-3.7-6.3-7.7-7.5-26.7-7.8l-16.8-.4v29.1Zm28.9-19.8c5.9 2.1 7.9 11.1 3.3 15.2-2.2 2-9.2 3.6-15.9 3.7h-5.3v-20h7.4c4 0 8.7.5 10.5 1.1Z"/></svg>